<svg width="57" height="57" viewBox="0 0 57 57" fill="currentcolor" xmlns="http://www.w3.org/2000/svg">
<path d="M28.5 1.625C13.6642 1.625 1.63086 13.6583 1.63086 28.5063C1.63086 43.3544 13.6654 55.3755 28.5 55.3755C43.3346 55.3755 55.3692 43.341 55.3692 28.5063C55.3692 13.6717 43.3359 1.625 28.5 1.625ZM22.7513 39.4935C22.7513 41.2717 21.3141 42.7088 19.5359 42.7088C17.7577 42.7088 16.3327 41.2717 16.3327 39.4935C16.3327 39.055 16.418 38.6409 16.5763 38.2633L12.1186 33.1358C10.5109 31.2723 10.5596 28.4954 12.2404 26.6928L16.4545 22.1864C16.3693 21.9063 16.3327 21.614 16.3327 21.3095C16.3327 19.5313 17.7699 18.0941 19.5359 18.0941C21.3019 18.0941 22.7513 19.5313 22.7513 21.3095C22.7513 23.0877 21.3141 24.5127 19.5359 24.5127C19.268 24.5127 19 24.4762 18.7564 24.4153L14.5789 28.8851C14.0186 29.4819 14.0064 30.4076 14.5423 31.0287L19.134 36.3146C19.268 36.2903 19.4019 36.2903 19.5359 36.2903C19.7186 36.2903 19.9013 36.3024 20.084 36.3268L33.1294 14.9628C32.8128 14.4634 32.6544 13.8301 32.7519 13.1846C32.9468 11.7596 34.2743 10.7608 35.6993 10.9679C37.1365 11.1749 38.123 12.4903 37.9282 13.9275C37.7211 15.3525 36.3935 16.3512 34.9685 16.1442H34.932L21.9475 37.3742C22.4468 37.9467 22.7513 38.6896 22.7513 39.4935ZM45.1506 33.1358L40.6929 38.2633C40.8512 38.6409 40.9365 39.055 40.9365 39.4935C40.9365 41.2717 39.4993 42.7088 37.7333 42.7088C35.9673 42.7088 34.5179 41.2717 34.5179 39.4935C34.5179 37.7153 35.9551 36.2903 37.7333 36.2903C37.8673 36.2903 38.0012 36.2903 38.1352 36.3146L42.7269 31.0287C43.2628 30.4076 43.2384 29.4819 42.6782 28.8851L38.5128 24.4153C38.257 24.4762 38.0012 24.5127 37.7333 24.5127C35.9551 24.5127 34.5179 23.0755 34.5179 21.3095C34.5179 19.5435 35.9551 18.0941 37.7333 18.0941C39.5115 18.0941 40.9365 19.5313 40.9365 21.3095C40.9365 21.614 40.9 21.9063 40.8147 22.1864L45.0288 26.6928C46.7096 28.4954 46.7583 31.2723 45.1506 33.1358Z" fill="currentcolor"/>
</svg>
